<svg width="25" height="24" viewBox="0 0 25 24" fill="none" xmlns="http://www.w3.org/2000/svg">
<path d="M8.60286 5.79034C9.5638 5.76221 10.3607 6.09034 11.1622 6.39034C11.5185 6.52628 11.8747 6.66221 12.2451 6.76065C12.5357 6.84034 12.8169 6.80284 13.0935 6.69971C13.5716 6.52628 14.0451 6.35284 14.5232 6.17471C15.3576 5.86534 16.2154 5.6544 17.106 5.71065C18.7701 5.81378 20.181 6.46065 21.2544 7.76846C21.4419 7.99346 21.4279 8.0169 21.1935 8.18096C19.4544 9.4044 18.6951 11.0872 18.9294 13.1919C19.1357 15.0622 20.1247 16.4028 21.7935 17.2513C22.0091 17.3591 22.0513 17.4575 21.9716 17.6778C21.4138 19.2013 20.6263 20.5935 19.5951 21.845C19.2857 22.22 18.9716 22.5856 18.606 22.8997C17.7857 23.5982 16.8576 23.7528 15.8216 23.481C15.2919 23.3403 14.7997 23.1013 14.2794 22.9278C13.2763 22.5997 12.2872 22.6607 11.2935 22.9794C10.7732 23.1482 10.281 23.3778 9.7513 23.5232C8.72005 23.8091 7.84818 23.556 7.07943 22.8341C5.7763 21.6153 4.81068 20.1575 4.0888 18.5403C3.55911 17.3685 3.17943 16.131 2.97318 14.8466C2.71536 13.2575 2.69661 11.6778 3.18411 10.1263C3.57786 8.85596 4.25755 7.76846 5.31224 6.94815C6.29661 6.18409 7.41693 5.77159 8.60286 5.79034Z" fill="#0E0C34"/>
<path d="M12.3717 4.94592C12.4185 3.45998 13.0654 2.26935 14.167 1.30373C14.9639 0.605292 15.8967 0.202167 16.9279 0.00997956C17.0873 -0.0181454 17.1529 0.00529204 17.1576 0.183417C17.1717 1.94592 16.5201 3.39904 15.1748 4.54279C14.4482 5.16154 13.6185 5.46623 12.667 5.4756C12.4326 5.48029 12.3342 5.41467 12.367 5.1756C12.381 5.10529 12.3717 5.0256 12.3717 4.94592Z" fill="#0E0C34"/>
</svg>
