<svg width="25" height="24" viewBox="0 0 25 24" fill="none" xmlns="http://www.w3.org/2000/svg">
<g clip-path="url(#clip0_12139_55492)">
<path d="M11.1359 0.135937C11.0281 0.248437 11 0.314063 11 0.478125C11 0.740625 11.0468 0.80625 11.6656 1.43437L12.1812 1.95469L11.5859 1.9875C8.48278 2.16094 5.80622 3.66562 4.09059 6.20156C3.19059 7.53281 2.6609 9.05625 2.5109 10.7437C2.44528 11.4891 2.46872 11.6859 2.63747 11.8641C2.85778 12.0937 3.30778 12.0375 3.45778 11.7562C3.48591 11.7047 3.52809 11.3719 3.55153 11.0203C3.62653 9.83437 3.88434 8.83125 4.39059 7.80469C5.73591 5.05312 8.4359 3.23906 11.4593 3.05156C11.7593 3.03281 12.0453 3.02812 12.0922 3.0375C12.1578 3.05625 12.0453 3.19219 11.5906 3.65625C11 4.24687 11 4.25156 11 4.47187C11 4.59375 11.0234 4.73437 11.0468 4.78594C11.1172 4.9125 11.3422 5.01562 11.5484 5.01562C11.7172 5.01562 11.7781 4.96406 12.8609 3.87656L14 2.74219V2.23125L11.7687 0H11.5203C11.3093 0 11.2531 0.01875 11.1359 0.135937Z" fill="#0E0C34"/>
<path d="M9.63122 9.13125L4.99997 13.7578V14.2687L10.2312 19.5H10.7422L15.3687 14.8687L20 10.2422V9.73125L14.7687 4.5H14.2578L9.63122 9.13125ZM10.5078 18.2344L6.26559 13.9922L14.4922 5.76562L18.7343 10.0078L10.5078 18.2344Z" fill="#0E0C34"/>
<path d="M21.6968 12.075C21.5234 12.1922 21.4906 12.3141 21.4484 12.9937C21.2093 16.8422 18.4625 20.0109 14.6843 20.7984C14.1734 20.9062 13.1093 21 12.9031 20.9625C12.8375 20.9484 12.9734 20.7891 13.4093 20.3484C14 19.7531 14 19.7484 14 19.5281C14 19.4062 13.9765 19.2656 13.9531 19.2141C13.8828 19.0875 13.6578 18.9844 13.4515 18.9844C13.2828 18.9844 13.2218 19.0359 12.139 20.1234L11 21.2578V21.4734C11 21.7687 11.0843 21.8719 12.2562 23.0297L13.2406 24H13.4843C13.6906 24 13.7468 23.9812 13.864 23.8641C13.9765 23.7469 14 23.6906 14 23.4844V23.2453L12.814 22.0312H13.0672C13.4422 22.0312 14.2953 21.9469 14.7453 21.8625C18.6031 21.1453 21.6265 18.1172 22.3672 14.2266C22.4609 13.7203 22.55 12.6187 22.5125 12.4125C22.4656 12.15 22.2828 12 22.0203 12C21.8984 12 21.7578 12.0328 21.6968 12.075Z" fill="#0E0C34"/>
<path d="M11.1359 0.135937C11.0281 0.248437 11 0.314063 11 0.478125C11 0.740625 11.0468 0.80625 11.6656 1.43437L12.1812 1.95469L11.5859 1.9875C8.48278 2.16094 5.80622 3.66562 4.09059 6.20156C3.19059 7.53281 2.6609 9.05625 2.5109 10.7437C2.44528 11.4891 2.46872 11.6859 2.63747 11.8641C2.85778 12.0937 3.30778 12.0375 3.45778 11.7562C3.48591 11.7047 3.52809 11.3719 3.55153 11.0203C3.62653 9.83437 3.88434 8.83125 4.39059 7.80469C5.73591 5.05312 8.4359 3.23906 11.4593 3.05156C11.7593 3.03281 12.0453 3.02812 12.0922 3.0375C12.1578 3.05625 12.0453 3.19219 11.5906 3.65625C11 4.24687 11 4.25156 11 4.47187C11 4.59375 11.0234 4.73437 11.0468 4.78594C11.1172 4.9125 11.3422 5.01562 11.5484 5.01562C11.7172 5.01562 11.7781 4.96406 12.8609 3.87656L14 2.74219V2.23125L11.7687 0H11.5203C11.3093 0 11.2531 0.01875 11.1359 0.135937Z" stroke="#0E0C34" stroke-width="0.5"/>
<path d="M9.63122 9.13125L4.99997 13.7578V14.2687L10.2312 19.5H10.7422L15.3687 14.8687L20 10.2422V9.73125L14.7687 4.5H14.2578L9.63122 9.13125ZM10.5078 18.2344L6.26559 13.9922L14.4922 5.76562L18.7343 10.0078L10.5078 18.2344Z" stroke="#0E0C34" stroke-width="0.5"/>
<path d="M21.6968 12.075C21.5234 12.1922 21.4906 12.3141 21.4484 12.9937C21.2093 16.8422 18.4625 20.0109 14.6843 20.7984C14.1734 20.9062 13.1093 21 12.9031 20.9625C12.8375 20.9484 12.9734 20.7891 13.4093 20.3484C14 19.7531 14 19.7484 14 19.5281C14 19.4062 13.9765 19.2656 13.9531 19.2141C13.8828 19.0875 13.6578 18.9844 13.4515 18.9844C13.2828 18.9844 13.2218 19.0359 12.139 20.1234L11 21.2578V21.4734C11 21.7687 11.0843 21.8719 12.2562 23.0297L13.2406 24H13.4843C13.6906 24 13.7468 23.9812 13.864 23.8641C13.9765 23.7469 14 23.6906 14 23.4844V23.2453L12.814 22.0312H13.0672C13.4422 22.0312 14.2953 21.9469 14.7453 21.8625C18.6031 21.1453 21.6265 18.1172 22.3672 14.2266C22.4609 13.7203 22.55 12.6187 22.5125 12.4125C22.4656 12.15 22.2828 12 22.0203 12C21.8984 12 21.7578 12.0328 21.6968 12.075Z" stroke="#0E0C34" stroke-width="0.5"/>
</g>
<defs>
<clipPath id="clip0_12139_55492">
<rect width="24" height="24" fill="white" transform="translate(0.5)"/>
</clipPath>
</defs>
</svg>
