<svg width="176" height="100" viewBox="0 0 176 100" fill="none" xmlns="http://www.w3.org/2000/svg">
<g clip-path="url(#clip0_12135_55243)">
<path d="M10.5884 92.3754C10.5884 92.756 10.5008 93.0804 10.332 93.3487C10.1631 93.617 9.87541 93.8416 9.4814 94.0163C9.08113 94.191 8.54326 94.3158 7.86155 94.3969C7.17984 94.4781 6.32927 94.5155 5.30983 94.5155C4.90956 94.5155 4.47802 94.503 4.01521 94.4843C3.5524 94.4656 3.08958 94.4406 2.61426 94.4032C2.1452 94.3658 1.68239 94.3221 1.23834 94.2659C0.794286 94.2098 0.381507 94.1411 0 94.0663L0.175118 92.887C0.619168 92.9494 1.11325 93.0118 1.66988 93.0742C2.2265 93.1366 2.82065 93.1865 3.44608 93.2302C4.0715 93.2738 4.70317 93.2926 5.3411 93.2926C6.298 93.2926 7.05476 93.2614 7.61139 93.2052C8.16176 93.1491 8.56203 93.0305 8.80594 92.8558C9.04986 92.6811 9.16869 92.4378 9.16869 92.1195C9.16869 91.7826 9.08738 91.5206 8.92477 91.3458C8.76216 91.1711 8.50574 91.0464 8.1555 90.9777C7.80527 90.9091 7.3362 90.8716 6.75456 90.8716H1.73867V89.9108H6.64824C7.23613 89.9108 7.7052 89.8796 8.06169 89.8234C8.41818 89.7673 8.66835 89.6612 8.83096 89.5052C8.99357 89.3492 9.07487 89.1308 9.07487 88.8438C9.07487 88.4944 8.95604 88.2324 8.71838 88.0452C8.48072 87.858 8.09296 87.7332 7.54884 87.6646C7.00473 87.5959 6.26673 87.5585 5.33485 87.5585C4.70943 87.5585 4.09026 87.5772 3.4836 87.6084C2.87694 87.6458 2.30781 87.6895 1.7762 87.7394C1.24459 87.7956 0.769269 87.8517 0.343982 87.9141L0.168864 86.7224C0.550371 86.66 0.956896 86.6038 1.39469 86.5602C1.83249 86.5165 2.27654 86.4728 2.72684 86.4416C3.17714 86.4104 3.61494 86.3792 4.03397 86.3668C4.453 86.3543 4.82826 86.3418 5.15973 86.3418C6.49188 86.3418 7.54259 86.4167 8.32437 86.5664C9.10614 86.7162 9.65652 86.9595 9.98799 87.3027C10.3195 87.6396 10.4883 88.0889 10.4883 88.6442C10.4883 89.0684 10.3883 89.4116 10.1944 89.6674C9.99424 89.9233 9.70655 90.1229 9.32504 90.2664C8.94353 90.4037 8.47447 90.516 7.91159 90.5909V90.2789C8.29935 90.3101 8.65584 90.3725 8.98106 90.4723C9.30628 90.5659 9.58772 90.6969 9.82538 90.8654C10.063 91.0339 10.2507 91.2398 10.382 91.4831C10.5133 91.7327 10.5821 92.026 10.5821 92.3754H10.5884Z" fill="white"/>
<path d="M22.928 94.3782H15.8607V86.4791H22.928C23.6847 86.4791 24.3539 86.5477 24.9231 86.6912C25.4984 86.8347 25.98 87.0593 26.374 87.3651C26.768 87.6708 27.062 88.0764 27.2621 88.5755C27.4623 89.0747 27.5561 89.6924 27.5561 90.4162C27.5561 91.1399 27.456 91.7701 27.2559 92.2755C27.0557 92.7809 26.7618 93.1865 26.3678 93.4985C25.9738 93.8104 25.4922 94.0288 24.9168 94.1723C24.3414 94.3096 23.6785 94.3782 22.928 94.3782ZM17.2741 87.6958V93.1615H22.7966C23.5909 93.1615 24.2351 93.0679 24.7167 92.887C25.1982 92.706 25.5485 92.4128 25.7674 92.0135C25.9863 91.6141 26.0926 91.0776 26.0926 90.4162C26.0926 89.7548 25.9863 89.212 25.7674 88.8189C25.5485 88.4258 25.1982 88.1388 24.7167 87.9641C24.2351 87.7893 23.5909 87.6958 22.7966 87.6958H17.2741Z" fill="white"/>
<path d="M50.6029 92.2818C50.6029 92.6749 50.5278 93.0118 50.3715 93.2926C50.2151 93.5733 49.9524 93.8042 49.5834 93.9851C49.2144 94.1661 48.7141 94.2971 48.0824 94.3845C47.4508 94.4718 46.6627 94.5093 45.7058 94.5093C45.0992 94.5093 44.4675 94.4843 43.8108 94.4344C43.1479 94.3845 42.5162 94.3158 41.9095 94.2285C41.3029 94.1411 40.7712 94.0475 40.3147 93.9477L40.5148 92.7872C40.8838 92.8745 41.2903 92.9494 41.7344 93.018C42.1784 93.0867 42.6413 93.1491 43.1291 93.2052C43.6169 93.2614 44.1047 93.2988 44.5988 93.33C45.0867 93.3612 45.5745 93.3737 46.0436 93.3737C46.7253 93.3737 47.2756 93.355 47.6947 93.3113C48.1137 93.2676 48.4389 93.2052 48.6703 93.1116C48.9017 93.018 49.0581 92.9057 49.1394 92.756C49.227 92.6125 49.2645 92.4378 49.2645 92.2319C49.2645 91.9386 49.2082 91.7202 49.0894 91.5767C48.9705 91.4332 48.8017 91.3271 48.5765 91.2647C48.3514 91.1961 48.0762 91.1524 47.7384 91.1212L43.2229 90.7281C42.5474 90.6845 41.9846 90.5846 41.5343 90.4349C41.084 90.2851 40.74 90.0605 40.5211 89.7673C40.2959 89.474 40.1833 89.0809 40.1833 88.6005C40.1833 88.0576 40.3397 87.6209 40.6587 87.2902C40.9776 86.9595 41.4967 86.7162 42.216 86.5664C42.9352 86.4167 43.8858 86.3418 45.0741 86.3418C45.4619 86.3418 45.8747 86.3543 46.325 86.3792C46.769 86.4042 47.2256 86.4416 47.6947 86.4915C48.1637 86.5352 48.614 86.5914 49.0518 86.6538C49.4896 86.7162 49.8899 86.7848 50.2526 86.8597L50.0212 87.9578C49.6898 87.8892 49.3083 87.8268 48.883 87.7644C48.4577 87.7082 48.0074 87.6583 47.5383 87.6146C47.0692 87.571 46.5939 87.5398 46.1249 87.5086C45.6558 87.4836 45.2117 87.4711 44.7865 87.4711C44.1047 87.4711 43.5481 87.4899 43.1228 87.5211C42.6975 87.5523 42.3661 87.6209 42.1347 87.7082C41.9033 87.7956 41.7469 87.9079 41.6656 88.0514C41.578 88.1887 41.5405 88.3634 41.5405 88.563C41.5405 88.8189 41.6031 89.0123 41.7281 89.1496C41.8532 89.2868 42.0346 89.3804 42.2785 89.4303C42.5224 89.4802 42.8226 89.5364 43.1791 89.5801L47.5758 89.9482C48.0574 89.9856 48.4827 90.0543 48.8642 90.1479C49.2457 90.2415 49.5647 90.3725 49.8211 90.5472C50.0775 90.7219 50.2777 90.9465 50.4153 91.2273C50.5528 91.5081 50.6154 91.8512 50.6154 92.2693L50.6029 92.2818Z" fill="white"/>
<path d="M57.1135 94.3782H55.7001V86.4791H57.1135V89.6612H65.1439V86.4791H66.5574V94.3782H65.1439V90.8904H57.1135V94.3782Z" fill="white"/>
<path d="M77.9088 94.5155C76.4766 94.5155 75.3008 94.372 74.3814 94.0787C73.4621 93.7917 72.7741 93.3425 72.3301 92.7435C71.886 92.1383 71.6609 91.3708 71.6609 90.4286C71.6609 89.4865 71.886 88.7066 72.3301 88.1076C72.7741 87.5086 73.4558 87.0656 74.3814 86.7786C75.3008 86.4915 76.4766 86.3418 77.9088 86.3418C79.341 86.3418 80.5043 86.4853 81.4237 86.7786C82.3431 87.0656 83.031 87.5148 83.4813 88.1076C83.9316 88.7066 84.1568 89.4802 84.1568 90.4286C84.1568 91.377 83.9316 92.1445 83.4813 92.7435C83.031 93.3425 82.3493 93.7917 81.4237 94.0787C80.5043 94.3658 79.3285 94.5155 77.9088 94.5155ZM77.9088 93.2863C78.8094 93.2863 79.5599 93.2302 80.1791 93.1179C80.792 93.0056 81.2861 92.8308 81.6614 92.5937C82.0304 92.3566 82.2993 92.0634 82.4681 91.7015C82.637 91.3396 82.7183 90.9153 82.7183 90.4224C82.7183 89.9295 82.637 89.4927 82.4681 89.1371C82.2993 88.7814 82.0304 88.4882 81.6614 88.2511C81.2924 88.014 80.7983 87.8393 80.1791 87.727C79.5599 87.6146 78.8094 87.5585 77.9088 87.5585C76.708 87.5585 75.7574 87.6583 75.0506 87.858C74.3439 88.0576 73.8436 88.3696 73.5371 88.7877C73.2307 89.2057 73.0806 89.7485 73.0806 90.4162C73.0806 91.0838 73.2307 91.6204 73.5371 92.0447C73.8436 92.4627 74.3502 92.7747 75.0506 92.9743C75.7574 93.174 76.708 93.2738 77.9088 93.2738V93.2863Z" fill="white"/>
<path d="M91.9746 94.3782L88.0969 86.4791H89.698L92.9127 93.0804L96.5026 86.4791H98.235L101.844 93.0804L105.033 86.4791H106.622L102.744 94.3782H100.956L97.3657 87.8143L93.7695 94.3782H91.9683H91.9746Z" fill="white"/>
<path d="M112.745 94.3782H111.331V86.4791H118.936C119.424 86.4791 119.856 86.529 120.237 86.6226C120.619 86.7224 120.938 86.8721 121.194 87.0718C121.451 87.2777 121.651 87.5398 121.782 87.8705C121.914 88.2012 121.982 88.5942 121.982 89.056C121.982 89.6113 121.882 90.073 121.676 90.4474C121.469 90.8155 121.163 91.1025 120.75 91.2897C120.337 91.4831 119.831 91.5892 119.218 91.6141L118.336 91.6266L119.043 92.1133L121.82 94.372H120.006L116.754 91.6828H112.751V94.372L112.745 94.3782ZM112.745 87.6958V90.6034H118.836C119.431 90.6034 119.862 90.491 120.119 90.2664C120.375 90.0418 120.506 89.6737 120.506 89.1558C120.506 88.6379 120.375 88.2573 120.119 88.0327C119.862 87.8081 119.431 87.6958 118.836 87.6958H112.745Z" fill="white"/>
<path d="M132.977 94.5155C131.545 94.5155 130.369 94.372 129.45 94.0787C128.53 93.7917 127.842 93.3425 127.398 92.7435C126.954 92.1383 126.729 91.3708 126.729 90.4286C126.729 89.4865 126.954 88.7066 127.398 88.1076C127.842 87.5086 128.524 87.0656 129.45 86.7786C130.369 86.4915 131.545 86.3418 132.977 86.3418C134.409 86.3418 135.573 86.4853 136.492 86.7786C137.411 87.0656 138.099 87.5148 138.55 88.1076C139 88.7066 139.225 89.4802 139.225 90.4286C139.225 91.377 139 92.1445 138.55 92.7435C138.099 93.3487 137.418 93.7917 136.492 94.0787C135.573 94.3658 134.397 94.5155 132.977 94.5155ZM132.977 93.2863C133.878 93.2863 134.628 93.2302 135.247 93.1179C135.86 93.0056 136.354 92.8308 136.73 92.5937C137.099 92.3566 137.368 92.0634 137.537 91.7015C137.705 91.3396 137.787 90.9153 137.787 90.4224C137.787 89.9295 137.705 89.4927 137.537 89.1371C137.368 88.7814 137.099 88.4882 136.73 88.2511C136.361 88.014 135.867 87.8393 135.247 87.727C134.628 87.6146 133.878 87.5585 132.977 87.5585C131.776 87.5585 130.826 87.6583 130.119 87.858C129.412 88.0576 128.912 88.3696 128.606 88.7877C128.299 89.2057 128.149 89.7485 128.149 90.4162C128.149 91.0838 128.299 91.6204 128.606 92.0447C128.912 92.4627 129.419 92.7747 130.119 92.9743C130.826 93.174 131.776 93.2738 132.977 93.2738V93.2863Z" fill="white"/>
<path d="M150.208 94.5155C148.775 94.5155 147.6 94.372 146.68 94.0787C145.761 93.7917 145.073 93.3425 144.629 92.7435C144.185 92.1383 143.96 91.3708 143.96 90.4286C143.96 89.4865 144.185 88.7066 144.629 88.1076C145.073 87.5086 145.755 87.0656 146.68 86.7786C147.6 86.4915 148.775 86.3418 150.208 86.3418C151.64 86.3418 152.803 86.4853 153.722 86.7786C154.642 87.0656 155.33 87.5148 155.78 88.1076C156.23 88.7066 156.456 89.4802 156.456 90.4286C156.456 91.377 156.23 92.1445 155.78 92.7435C155.33 93.3425 154.648 93.7917 153.722 94.0787C152.803 94.3658 151.627 94.5155 150.208 94.5155ZM150.208 93.2863C151.108 93.2863 151.859 93.2302 152.478 93.1179C153.091 93.0056 153.585 92.8308 153.96 92.5937C154.329 92.3566 154.598 92.0634 154.767 91.7015C154.936 91.3396 155.017 90.9153 155.017 90.4224C155.017 89.9295 154.936 89.4927 154.767 89.1371C154.598 88.7814 154.329 88.4882 153.96 88.2511C153.591 88.014 153.097 87.8393 152.478 87.727C151.859 87.6146 151.108 87.5585 150.208 87.5585C149.007 87.5585 148.056 87.6583 147.349 87.858C146.643 88.0576 146.142 88.3696 145.836 88.7877C145.529 89.2057 145.379 89.7485 145.379 90.4162C145.379 91.0838 145.529 91.6204 145.836 92.0447C146.142 92.4627 146.649 92.7747 147.349 92.9743C148.056 93.174 149.007 93.2738 150.208 93.2738V93.2863Z" fill="white"/>
<path d="M162.954 94.3782H161.54V86.4791H163.273L168.789 93.2052L174.305 86.4791H176.013V94.3782H174.599V88.1575L169.489 94.3782H168.063L162.966 88.1575V94.3782H162.954Z" fill="white"/>
<path d="M85.8579 47.7756L85.908 47.8193C85.9768 47.8755 86.0268 47.9191 86.0706 47.9566C86.0706 47.9566 86.0831 47.9691 86.0893 47.9691L87.6029 49.1733L87.6654 49.2169L87.728 49.1733L89.2415 47.9691C89.2415 47.9691 89.254 47.9566 89.2602 47.9503C89.2978 47.9191 89.354 47.8755 89.4166 47.8193L89.4666 47.7756C96.0085 42.3535 111.219 27.3913 111.238 5.66544L111.294 4.10557L109.837 3.48787C109.837 3.48787 109.805 3.47539 109.78 3.46291C109.755 3.45043 109.73 3.44419 109.699 3.43171L109.58 3.38803C109.568 3.38803 109.555 3.38179 109.549 3.37556C109.524 3.36308 109.493 3.35684 109.461 3.34436C109.443 3.33812 109.418 3.32564 109.393 3.3194C109.361 3.30692 109.33 3.29444 109.299 3.28196C109.274 3.26948 109.249 3.26324 109.224 3.25077C109.186 3.23829 109.149 3.21957 109.105 3.20709C109.08 3.20085 109.055 3.18837 109.03 3.18213C108.961 3.15717 108.892 3.13222 108.817 3.10726C108.586 3.02614 108.348 2.94503 108.104 2.86392C108.067 2.85144 108.029 2.83896 107.992 2.82648C107.71 2.73289 107.422 2.64554 107.122 2.55195C106.885 2.47083 104.258 1.61602 99.3983 0.861049C99.1231 0.817372 98.8417 0.779936 98.5478 0.736259C97.9411 0.655146 97.3032 0.574033 96.6402 0.499159C96.4088 0.474201 96.1711 0.449244 95.9335 0.424286L95.7334 0.405567C95.283 0.361891 94.8327 0.318215 94.3762 0.280778C93.9196 0.243341 93.4693 0.212144 93.0128 0.180946C93.0128 0.180946 93.0128 0.180946 93.0065 0.180946C93.0065 0.180946 93.0003 0.180946 92.994 0.180946C92.7626 0.168467 92.5437 0.149749 92.3498 0.14351H92.2435C92.1747 0.131031 92.1122 0.131031 92.0434 0.124791C92.0183 0.124791 91.9996 0.124791 91.9808 0.124791C91.937 0.124791 91.8933 0.124791 91.8557 0.118552C91.8307 0.118552 91.8119 0.118552 91.7869 0.118552C91.7494 0.118552 91.7181 0.118552 91.6869 0.118552C91.6619 0.118552 91.6431 0.118552 91.6243 0.118552C91.5993 0.118552 91.5805 0.118552 91.5555 0.118552C91.5305 0.118552 91.5055 0.118552 91.4867 0.118552C91.4867 0.118552 91.4867 0.118552 91.4805 0.118552C91.4805 0.118552 91.4242 0.118552 91.3992 0.118552L87.6967 0.0249596H87.6842H87.6717L83.9692 0.118552C83.9692 0.118552 83.9191 0.118552 83.8879 0.118552C83.8879 0.118552 83.8879 0.118552 83.8816 0.118552C83.8628 0.118552 83.8378 0.118552 83.8128 0.118552C83.794 0.118552 83.769 0.118552 83.744 0.118552C83.7252 0.118552 83.7002 0.118552 83.6815 0.118552C83.6502 0.118552 83.6127 0.118552 83.5814 0.118552C83.5564 0.118552 83.5376 0.118552 83.5126 0.118552C83.4751 0.118552 83.4313 0.118552 83.3875 0.124791C83.3688 0.124791 83.3437 0.124791 83.325 0.124791C83.2562 0.124791 83.1936 0.131031 83.1248 0.13727H83.0185C82.8246 0.155988 82.6057 0.168467 82.3743 0.180946C82.3743 0.180946 82.3681 0.180946 82.3618 0.180946C82.3618 0.180946 82.3618 0.180946 82.3556 0.180946C81.899 0.212144 81.4425 0.243341 80.9922 0.280778C80.5356 0.318215 80.079 0.355651 79.635 0.405567L79.4349 0.424286C79.1972 0.449244 78.9595 0.474201 78.7281 0.499159C78.0527 0.574033 77.4085 0.655146 76.7893 0.736259C76.5141 0.773696 76.2389 0.811133 75.9763 0.854809C71.1167 1.60979 68.49 2.46459 68.2523 2.54571C67.9521 2.6393 67.6644 2.72665 67.383 2.82024C67.3454 2.83272 67.3079 2.8452 67.2704 2.85768C67.0265 2.93879 66.7888 3.01991 66.5574 3.10102C66.4824 3.12598 66.4136 3.15093 66.3448 3.17589C66.3198 3.18837 66.2947 3.19461 66.2697 3.20085C66.2322 3.21333 66.1884 3.23205 66.1509 3.24453C66.1259 3.25701 66.1009 3.26324 66.0758 3.27572C66.0446 3.2882 66.007 3.30068 65.9758 3.31316C65.9508 3.3194 65.932 3.33188 65.907 3.33812C65.8757 3.3506 65.8507 3.36308 65.8194 3.36932C65.8069 3.36932 65.7944 3.37556 65.7881 3.38179L65.6693 3.42547V3.43171C65.638 3.44419 65.613 3.45667 65.588 3.46291C65.588 3.46291 65.588 3.46291 65.5818 3.46291C65.5567 3.47539 65.538 3.48163 65.5255 3.48787L64.0682 4.10557L64.1245 5.66544C64.1433 27.3913 79.3535 42.3535 85.8955 47.7756H85.8579ZM89.8231 4.31772C89.8231 4.31772 89.8606 4.31772 89.8794 4.31772C90.042 4.31772 90.2109 4.32396 90.3735 4.33019C90.5549 4.33019 90.7362 4.34267 90.9176 4.34891H91.099C91.099 4.34891 91.124 4.34891 91.1427 4.35515C91.1803 4.35515 91.2428 4.35515 91.3179 4.36139C91.3179 4.36139 91.3241 4.36139 91.3304 4.36139C91.4492 4.36139 91.6118 4.37387 91.8057 4.38635C91.862 4.38635 91.9245 4.39259 91.9808 4.39883H92.0871C92.2247 4.41131 92.3811 4.42379 92.5437 4.43003C92.6 4.43003 92.6563 4.43627 92.7126 4.4425C93.5819 4.49866 94.4512 4.56729 95.3018 4.65465L95.4269 4.66713H95.4957C95.7208 4.69832 95.9397 4.71704 96.1649 4.742C96.3963 4.76696 96.6214 4.79192 96.8403 4.81687C96.9779 4.83559 97.1093 4.84807 97.2469 4.86679C97.766 4.92918 98.2663 4.99782 98.7354 5.07269C99.4921 5.19124 100.186 5.30979 100.818 5.42834C100.849 5.42834 100.881 5.44082 100.906 5.44706C101.037 5.47202 101.162 5.49698 101.293 5.52193C101.325 5.52193 101.356 5.53441 101.387 5.54065C101.493 5.55937 101.6 5.58433 101.706 5.60305C101.75 5.61553 101.8 5.62176 101.85 5.63424C101.938 5.65296 102.013 5.66544 102.1 5.68416C102.163 5.69664 102.225 5.70912 102.288 5.7216C102.363 5.74031 102.438 5.75279 102.513 5.77151C102.575 5.78399 102.638 5.79647 102.694 5.80895C102.763 5.82143 102.832 5.84015 102.901 5.85263C102.963 5.8651 103.02 5.87758 103.082 5.89006C103.138 5.90254 103.195 5.91502 103.251 5.9275C103.313 5.93998 103.382 5.9587 103.439 5.97118C103.482 5.98365 103.526 5.98989 103.576 6.00237C103.645 6.02109 103.714 6.03357 103.776 6.05229C103.814 6.05853 103.851 6.07101 103.883 6.07725C103.951 6.09596 104.02 6.10844 104.083 6.12716C104.114 6.1334 104.145 6.14588 104.177 6.15212C104.239 6.17084 104.302 6.18332 104.364 6.1958C104.395 6.20204 104.427 6.21451 104.458 6.22075C104.514 6.23323 104.571 6.25195 104.621 6.26443C104.646 6.27067 104.671 6.27691 104.696 6.28315C104.746 6.29563 104.802 6.31435 104.852 6.32683C104.871 6.32683 104.89 6.3393 104.908 6.34554C104.958 6.35802 105.002 6.3705 105.046 6.38298L105.821 6.61384C106.215 6.73239 106.584 6.85094 106.941 6.96949C106.935 7.20659 106.922 7.44369 106.91 7.68079C106.91 7.7619 106.903 7.84302 106.897 7.91789C106.891 8.07388 106.878 8.22986 106.872 8.38585C106.866 8.47944 106.86 8.57927 106.853 8.67287C106.841 8.81013 106.835 8.9474 106.822 9.08467C106.816 9.1845 106.803 9.29057 106.797 9.39041C106.785 9.52143 106.772 9.64622 106.76 9.77725C106.747 9.88332 106.741 9.98939 106.728 10.0955C106.716 10.214 106.703 10.3388 106.684 10.4574C106.672 10.5697 106.659 10.682 106.647 10.7943C106.634 10.8941 106.622 10.9939 106.609 11.0938C106.572 11.3621 106.534 11.6366 106.497 11.9049C106.491 11.9673 106.478 12.0235 106.472 12.0859C106.447 12.2356 106.422 12.3854 106.397 12.5413C106.384 12.61 106.378 12.6724 106.366 12.741C106.341 12.897 106.309 13.0467 106.284 13.2027C106.272 13.2589 106.265 13.3213 106.253 13.3774C106.222 13.5397 106.19 13.6956 106.159 13.8579C106.153 13.9015 106.14 13.9452 106.134 13.9827C105.934 14.9623 105.703 15.9231 105.446 16.8653C99.0981 14.7002 93.757 14.4069 89.8419 14.3071V4.31772H89.8231ZM89.8231 18.5874C93.1253 18.681 97.2093 18.9056 102.006 20.2783C96.7653 22.0877 92.8376 24.4899 89.8231 26.6363V18.5874ZM89.8231 31.9711C92.8314 29.65 96.7465 26.7673 102.519 24.6272C102.188 25.326 101.837 26.0061 101.481 26.68C101.468 26.7049 101.456 26.7299 101.443 26.7486C101.337 26.9483 101.231 27.1417 101.124 27.3351C101.112 27.3601 101.099 27.385 101.081 27.41C100.962 27.6159 100.849 27.8218 100.73 28.0277C100.73 28.0277 100.73 28.0339 100.724 28.0402C100.355 28.6891 99.9737 29.3193 99.5859 29.9307C99.5734 29.9557 99.5547 29.9744 99.5422 29.9994C99.4296 30.1741 99.317 30.355 99.2044 30.5297C99.1857 30.5609 99.1669 30.5921 99.1482 30.6233C99.0356 30.798 98.9167 30.9727 98.8042 31.1474C98.7917 31.1662 98.7729 31.1911 98.7604 31.2098C98.3664 31.7963 97.9724 32.3641 97.5721 32.9194C97.5471 32.9506 97.5283 32.9818 97.5033 33.013C97.397 33.1628 97.2844 33.3125 97.1781 33.456C97.1468 33.4997 97.1155 33.5372 97.0905 33.5808C96.9842 33.7243 96.8841 33.8616 96.7778 33.9989C96.7465 34.0363 96.7215 34.0737 96.6902 34.1112C96.5714 34.2672 96.4588 34.4169 96.34 34.5667C96.3275 34.5854 96.3087 34.6041 96.2962 34.6228C96.0273 34.966 95.7646 35.3029 95.4957 35.6274C95.4582 35.6711 95.4269 35.7147 95.3894 35.7522C95.2956 35.8707 95.1955 35.9893 95.1017 36.1016C95.0579 36.1515 95.0141 36.2076 94.9703 36.2576C94.8828 36.3636 94.7952 36.4697 94.7014 36.5758C94.6576 36.6257 94.6138 36.6819 94.5701 36.7318C94.4763 36.8378 94.3887 36.9439 94.2949 37.05C94.2574 37.0937 94.2198 37.1436 94.176 37.1872C94.051 37.3308 93.9259 37.4743 93.8008 37.6115C93.7883 37.6302 93.7695 37.6427 93.757 37.6614C93.6382 37.7925 93.5194 37.9235 93.4068 38.0545C93.3567 38.1107 93.3067 38.1606 93.2629 38.2168C93.1879 38.3041 93.1066 38.3915 93.0315 38.4726C92.9752 38.535 92.9189 38.5911 92.8627 38.6535C92.7939 38.7284 92.7188 38.8033 92.65 38.8844C92.5937 38.9468 92.5312 39.0092 92.4749 39.0716C92.4061 39.1464 92.3373 39.2151 92.2748 39.2837C92.2185 39.3461 92.1559 39.4085 92.0996 39.4647C92.0308 39.5395 91.9621 39.6082 91.887 39.683C91.7994 39.7704 91.7181 39.8577 91.6306 39.9451C91.5493 40.0324 91.468 40.1136 91.3867 40.1947C91.3241 40.2571 91.2616 40.3195 91.199 40.3819C91.1428 40.438 91.0865 40.4942 91.0302 40.5566C90.9676 40.619 90.8988 40.6876 90.8363 40.75C90.78 40.8061 90.73 40.8561 90.6737 40.9122C90.6111 40.9746 90.5423 41.037 90.4798 41.0994C90.4298 41.1493 90.3735 41.1992 90.3234 41.2491C90.2609 41.3115 90.1921 41.3739 90.1296 41.4363C90.0795 41.4862 90.0295 41.5299 89.9857 41.5736C89.9294 41.6235 89.8731 41.6797 89.8231 41.7296V31.9523V31.9711ZM85.5077 41.7483C85.4514 41.6984 85.4014 41.6422 85.3451 41.5923C85.2951 41.5486 85.245 41.4987 85.2012 41.455C85.1387 41.3927 85.0699 41.3303 85.0074 41.2679C84.9573 41.2179 84.901 41.168 84.851 41.1181C84.7885 41.0557 84.7197 40.9933 84.6571 40.9309C84.6008 40.8748 84.5508 40.8249 84.4945 40.7687C84.432 40.7063 84.3694 40.6439 84.3006 40.5753C84.2443 40.5191 84.1881 40.4567 84.1255 40.4006C84.063 40.3382 84.0004 40.2758 83.9379 40.2134C83.8566 40.1323 83.7753 40.0449 83.694 39.9638C83.6127 39.8765 83.5251 39.7891 83.4438 39.7018C83.375 39.6269 83.3 39.552 83.2312 39.4834C83.1749 39.421 83.1186 39.3648 83.056 39.3024C82.9873 39.2338 82.9185 39.1589 82.8497 39.084C82.7934 39.0217 82.7308 38.9593 82.6745 38.8969C82.6057 38.822 82.5369 38.7471 82.4619 38.6722C82.4056 38.6098 82.3493 38.5537 82.293 38.4913C82.2117 38.4039 82.1367 38.3166 82.0554 38.2355C82.0053 38.1793 81.9616 38.1294 81.9115 38.0733C81.7989 37.9422 81.6801 37.8174 81.5675 37.6864C81.5488 37.6677 81.53 37.649 81.5113 37.624C81.3862 37.4867 81.2673 37.3432 81.1423 37.206C81.1047 37.1623 81.061 37.1124 81.0234 37.0687C80.9359 36.9626 80.8421 36.8566 80.7482 36.7505C80.7045 36.7006 80.6607 36.6444 80.6106 36.5883C80.5231 36.4822 80.4355 36.3761 80.348 36.2763C80.3042 36.2264 80.2604 36.1702 80.2166 36.1203C80.1228 36.008 80.0228 35.8894 79.9289 35.7709C79.8914 35.7272 79.8601 35.6835 79.8226 35.6399C79.5537 35.3092 79.291 34.9785 79.0221 34.6353C79.0096 34.6166 78.9971 34.5979 78.9783 34.5791C78.8595 34.4294 78.7406 34.2734 78.6281 34.1174C78.5968 34.08 78.5718 34.0426 78.5405 33.9989C78.4342 33.8616 78.3341 33.7243 78.2278 33.5808C78.1965 33.5372 78.1652 33.4997 78.134 33.456C78.0277 33.3125 77.9151 33.1628 77.8088 33.013C77.7837 32.9818 77.765 32.9506 77.74 32.9194C77.3397 32.3641 76.9394 31.7963 76.5517 31.2098C76.5392 31.1911 76.5204 31.1662 76.5079 31.1474C76.3953 30.9727 76.2765 30.8043 76.1639 30.6296C76.1451 30.5984 76.1264 30.5672 76.1014 30.536C75.9888 30.3613 75.8762 30.1866 75.7636 30.0119C75.7511 29.9869 75.7324 29.9619 75.7198 29.9432C75.3321 29.3255 74.9506 28.6953 74.5816 28.0527C74.5816 28.0527 74.5816 28.0464 74.5753 28.0402C74.4565 27.8343 74.3439 27.6284 74.2251 27.4225C74.2126 27.3975 74.2001 27.3726 74.1813 27.3476C74.075 27.1542 73.9687 26.9545 73.8623 26.7611C73.8498 26.7361 73.8373 26.7112 73.8248 26.6925C73.4683 26.0248 73.1181 25.3385 72.7866 24.6397C78.5593 26.7736 82.4744 29.6624 85.4827 31.9835V41.7608L85.5077 41.7483ZM85.5077 26.6363C82.4932 24.4837 78.5593 22.0877 73.3245 20.2783C78.1215 18.9056 82.2055 18.681 85.5077 18.5874V26.6363ZM69.5157 6.62008L70.2912 6.38922C70.335 6.37674 70.385 6.36426 70.4288 6.35178C70.4475 6.35178 70.4663 6.3393 70.4851 6.33306C70.5351 6.32059 70.5851 6.30811 70.6414 6.28939C70.6664 6.28315 70.6915 6.27691 70.7165 6.27067C70.7665 6.25819 70.8228 6.24571 70.8728 6.22699C70.9041 6.22075 70.9354 6.20827 70.9729 6.20204C71.0292 6.18956 71.0917 6.17084 71.1543 6.15836C71.1918 6.15212 71.2231 6.13964 71.2543 6.1334C71.3169 6.11468 71.3857 6.1022 71.4482 6.08349C71.4857 6.07725 71.5233 6.06477 71.5608 6.05853C71.6233 6.04605 71.6921 6.02733 71.7609 6.00861C71.8047 5.99613 71.8485 5.98989 71.8985 5.97741C71.9611 5.96494 72.0236 5.94622 72.0861 5.93374C72.1424 5.92126 72.1987 5.90878 72.2613 5.8963C72.3176 5.88382 72.3738 5.87134 72.4301 5.85887C72.4989 5.84015 72.5677 5.82767 72.6428 5.80895C72.6991 5.79647 72.7616 5.78399 72.8179 5.77151C72.8929 5.75279 72.968 5.74031 73.0493 5.7216C73.1118 5.70912 73.1744 5.69664 73.2369 5.68416C73.3182 5.66544 73.3995 5.65296 73.4808 5.63424C73.5246 5.628 73.5746 5.61553 73.6184 5.60929C73.7247 5.59057 73.8311 5.56561 73.9374 5.54689C73.9624 5.54689 73.9937 5.53441 74.0187 5.52817C74.15 5.50321 74.2814 5.47826 74.419 5.4533C74.444 5.4533 74.469 5.44082 74.494 5.44082C75.132 5.32227 75.8324 5.20372 76.5892 5.08517C77.0582 5.0103 77.5586 4.94166 78.0777 4.87927C78.2153 4.86055 78.3466 4.84807 78.4842 4.82935C78.7031 4.80439 78.9345 4.77944 79.1597 4.75448C79.3848 4.72952 79.61 4.70456 79.8289 4.68584H79.8977L80.0227 4.66713C80.8733 4.58601 81.7427 4.51114 82.612 4.45498C82.6683 4.45498 82.7246 4.44874 82.7809 4.4425C82.9435 4.43003 83.0998 4.42379 83.2374 4.41755H83.3437C83.4 4.41131 83.4626 4.40507 83.5189 4.39883C83.7127 4.38635 83.8691 4.38011 83.9879 4.37387C83.9879 4.37387 83.9942 4.37387 84.0004 4.37387C84.0817 4.37387 84.138 4.37387 84.1755 4.36763C84.1943 4.36763 84.2131 4.36763 84.2193 4.36763H84.4007C84.5821 4.35515 84.7635 4.34891 84.9448 4.34267C85.1074 4.34267 85.27 4.33019 85.4389 4.33019C85.4577 4.33019 85.4764 4.33019 85.4952 4.33019V14.3258C81.58 14.4319 76.2327 14.7189 69.8909 16.884C69.6345 15.9418 69.4031 14.981 69.203 14.0014C69.1967 13.9577 69.1842 13.914 69.1779 13.8766C69.1467 13.7144 69.1154 13.5584 69.0841 13.3961C69.0716 13.34 69.0654 13.2776 69.0529 13.2214C69.0278 13.0717 68.9966 12.9157 68.9715 12.766C68.959 12.6973 68.9465 12.6287 68.9403 12.5663C68.9153 12.4165 68.8902 12.2668 68.8652 12.1171C68.8527 12.0547 68.8465 11.9923 68.8339 11.9299C68.7964 11.6678 68.7589 11.3995 68.7214 11.1375C68.7089 11.0376 68.6964 10.9316 68.6838 10.8317C68.6713 10.7194 68.6588 10.6071 68.6463 10.501C68.6338 10.3825 68.6151 10.2577 68.6025 10.1391C68.59 10.0331 68.5775 9.927 68.5713 9.82093C68.5588 9.6899 68.5463 9.56511 68.5337 9.43408C68.5275 9.33425 68.515 9.22818 68.5087 9.12835C68.4962 8.99108 68.4837 8.85381 68.4775 8.71654C68.4712 8.62295 68.465 8.52312 68.4587 8.42953C68.4462 8.27354 68.4399 8.11755 68.4337 7.96157C68.4337 7.88045 68.4274 7.79934 68.4212 7.72447C68.4087 7.48737 68.4024 7.25027 68.3899 7.01317C68.7464 6.89462 69.1154 6.77607 69.5094 6.65752L69.5157 6.62008Z" fill="white"/>
<path d="M0 74.4618H4.38421V70.0693H17.9746V66.5377H4.38421V64.4475H18.3499V60.6477H0V74.4618Z" fill="white"/>
<path d="M36.706 61.1281C35.0799 60.6227 32.941 60.3731 30.3517 60.3731C27.7625 60.3731 25.6361 60.6289 23.9975 61.1281C22.3338 61.6397 21.0892 62.4259 20.295 63.4804C19.5007 64.5348 19.1004 65.9013 19.1004 67.5548C19.1004 69.2082 19.5007 70.5559 20.295 71.6166C21.0892 72.6774 22.3338 73.4698 23.9975 73.9814C25.6423 74.4868 27.7813 74.7364 30.3517 74.7364C32.9222 74.7364 35.0799 74.4806 36.706 73.9814C38.3571 73.476 39.5955 72.6774 40.396 71.6166C41.1966 70.5559 41.5968 69.1895 41.5968 67.5548C41.5968 65.92 41.1903 64.5348 40.396 63.4804C39.6017 62.4321 38.3571 61.6397 36.706 61.1281ZM36.8186 69.1146C36.6122 69.5327 36.262 69.8758 35.7742 70.1379C35.2676 70.4062 34.5671 70.6121 33.6915 70.7369C32.8034 70.8679 31.6776 70.9303 30.3517 70.9303C28.5693 70.9303 27.1558 70.818 26.1552 70.5871C25.1795 70.3688 24.4853 70.0069 24.085 69.5202C23.6847 69.0335 23.4846 68.3659 23.4846 67.5485C23.4846 66.7311 23.6847 66.0635 24.085 65.5768C24.4853 65.0902 25.1795 64.7283 26.1552 64.5099C27.1621 64.2853 28.5693 64.173 30.3517 64.173C31.6776 64.173 32.8034 64.2354 33.6915 64.3601C34.5671 64.4787 35.2676 64.6784 35.7742 64.9529C36.262 65.215 36.6185 65.5581 36.8186 65.9762C37.0312 66.4004 37.1376 66.937 37.1376 67.561C37.1376 68.1849 37.0312 68.6966 36.8186 69.1271V69.1146Z" fill="white"/>
<path d="M57.2449 70.3251H57.4888C58.5082 70.2377 59.3901 70.0193 60.1156 69.6637C60.8536 69.3018 61.4227 68.7652 61.8167 68.0789C62.2045 67.3988 62.4046 66.5377 62.4046 65.5207C62.4046 64.6222 62.2608 63.8423 61.9856 63.2183C61.7041 62.5881 61.2914 62.0765 60.766 61.7021C60.2469 61.334 59.6215 61.0657 58.9148 60.891C58.2143 60.7225 57.4325 60.6414 56.5882 60.6414H42.9102V74.4556H47.2944V70.5559H52.1602L57.001 74.4556H62.6423L57.7765 70.6433L57.2511 70.3251H57.2449ZM56.1879 67.1929H47.2882V64.4537H56.1879C56.8133 64.4537 57.2637 64.5536 57.5138 64.747C57.7515 64.9342 57.8766 65.3023 57.8766 65.8389C57.8766 66.3318 57.7515 66.6812 57.5076 66.8746C57.2511 67.0806 56.8071 67.1866 56.1817 67.1866L56.1879 67.1929Z" fill="white"/>
<path d="M76.9457 70.6807L68.9778 60.6477H63.8181V74.4618H68.2023V66.1197L74.7254 74.3932L74.7817 74.4618H79.0158L85.589 66.1197V74.4618H89.9732V60.6477H84.8948L76.9457 70.6807Z" fill="white"/>
<path d="M99.2482 60.6477L90.2359 74.4618H95.5019L97.1343 71.86H106.885L108.517 74.4618H113.827L104.814 60.6477H99.2607H99.2482ZM99.1044 68.7091L102.006 64.0794L104.908 68.7091H99.1106H99.1044Z" fill="white"/>
<path d="M141.42 60.6477L132.408 74.4618H137.674L139.307 71.86H149.057L150.689 74.4618H155.999L146.987 60.6477H141.433H141.42ZM141.283 68.7091L144.185 64.0794L147.087 68.7091H141.289H141.283Z" fill="white"/>
<path d="M171.134 70.6495L170.609 70.3313H170.853C171.872 70.244 172.754 70.0256 173.48 69.6637C174.218 69.3018 174.787 68.7652 175.181 68.0789C175.568 67.3988 175.769 66.5377 175.769 65.5207C175.769 64.616 175.625 63.8423 175.35 63.2183C175.068 62.5881 174.655 62.0765 174.13 61.7021C173.611 61.334 172.992 61.0657 172.279 60.891C171.578 60.7225 170.796 60.6414 169.952 60.6414H156.274V74.4556H160.658V70.5559H165.524L170.365 74.4556H176.006L171.14 70.6433L171.134 70.6495ZM169.552 67.1929H160.652V64.4537H169.552C170.177 64.4537 170.628 64.5536 170.878 64.747C171.115 64.9342 171.241 65.3023 171.241 65.8389C171.241 66.3318 171.115 66.6812 170.872 66.8746C170.615 67.0806 170.171 67.1866 169.546 67.1866L169.552 67.1929Z" fill="white"/>
<path d="M116.547 61.0844C115.634 61.3964 114.852 61.8581 114.221 62.4571C113.589 63.0561 113.095 63.7986 112.764 64.6596C112.457 65.452 112.295 66.3817 112.276 67.4112V67.6546C112.295 68.6841 112.463 69.6138 112.764 70.4062C113.095 71.2735 113.589 72.016 114.221 72.6087C114.852 73.2077 115.634 73.6694 116.547 73.9814C117.454 74.2934 118.492 74.4556 119.649 74.4556H132.127V70.6121H120.062C118.955 70.6121 118.098 70.3438 117.504 69.8197C116.941 69.3143 116.647 68.5468 116.629 67.536C116.647 66.5252 116.941 65.7515 117.504 65.2461C118.092 64.7158 118.955 64.4537 120.062 64.4537H132.127V60.6102H119.649C118.499 60.6102 117.454 60.7662 116.547 61.0782V61.0844Z" fill="white"/>
</g>
<defs>
<clipPath id="clip0_12135_55243">
<rect width="176" height="100" fill="white"/>
</clipPath>
</defs>
</svg>
