<svg width="20" height="22" viewBox="0 0 20 22" fill="none" xmlns="http://www.w3.org/2000/svg">
<path d="M9.60852 10.4953L0.612305 19.9686C0.817012 20.6979 1.34559 21.2911 2.04426 21.5757C2.74294 21.8603 3.53326 21.8043 4.18532 21.424L14.3077 15.6295L9.60852 10.4953Z" fill="#EA4335"/>
<path d="M18.7059 8.88517L14.3285 6.36523L9.40137 10.7111L14.3486 15.6162L18.6925 13.1232C19.4769 12.7105 19.9685 11.8941 19.9685 11.0042C19.9685 10.1143 19.4769 9.29796 18.6925 8.88517H18.7059Z" fill="#FBBC04"/>
<path d="M0.612721 1.99237C0.558341 2.19443 0.531283 2.40293 0.532252 2.61225V19.3489C0.532822 19.5582 0.559854 19.7665 0.612721 19.9688L9.9173 10.738L0.612721 1.99237Z" fill="#4285F4"/>
<path d="M9.67555 10.9805L14.3278 6.36511L4.21883 0.54365C3.83853 0.31978 3.40599 0.201212 2.96526 0.200017C1.87143 0.197843 0.909802 0.927565 0.612305 1.98554L9.67555 10.9805Z" fill="#34A853"/>
</svg>
