<svg width="20" height="20" viewBox="0 0 20 20" fill="none" xmlns="http://www.w3.org/2000/svg">
<path d="M0.908286 9.91865C0.907733 11.5198 1.32798 13.083 2.12683 14.4608L0.831604 19.1685L5.67119 17.9052C7.00465 18.6291 8.50584 19.0106 10.0337 19.0113H10.0376C15.0687 19.0113 19.1647 14.9349 19.1668 9.92569C19.1676 7.49784 18.2187 5.21512 16.4953 3.49787C14.7715 1.78062 12.4796 0.834361 10.0376 0.833313C5.00537 0.833313 0.910238 4.90886 0.908132 9.91836M3.79015 14.2234L3.60949 13.9377C2.84983 12.7354 2.4489 11.3458 2.44945 9.91904C2.45111 5.75547 5.85487 2.36786 10.0403 2.36786C12.0671 2.36865 13.972 3.15528 15.4048 4.5825C16.8375 6.00982 17.6259 7.90723 17.6253 9.92496C17.6235 14.0888 14.2196 17.4767 10.0374 17.4767H10.0344C8.67265 17.4759 7.33714 17.112 6.17244 16.4239L5.89524 16.2603L3.02322 17.01L3.79015 14.2234ZM10.0376 19.0113C10.0374 19.0113 10.0375 19.0113 10.0376 19.0113V19.0113Z" fill="white"/>
<path fill-rule="evenodd" clip-rule="evenodd" d="M7.7462 5.84302C7.5772 5.43799 7.39939 5.42988 7.23866 5.42276C7.10711 5.41673 6.95667 5.41712 6.80639 5.41712C6.65594 5.41712 6.41157 5.47799 6.20494 5.72137C5.99812 5.96476 5.41541 6.55309 5.41541 7.74963C5.41541 8.94629 6.22378 10.1025 6.3364 10.265C6.44922 10.4271 7.89686 12.9612 10.1894 13.9359C12.0948 14.7461 12.4825 14.585 12.8961 14.5444C13.3096 14.5039 14.2306 13.9562 14.4185 13.3883C14.6065 12.8205 14.6065 12.3337 14.5502 12.232C14.4938 12.1307 14.3433 12.0698 14.1178 11.9483C13.8922 11.8266 12.7832 11.2382 12.5765 11.157C12.3697 11.076 12.2193 11.0355 12.0689 11.279C11.9185 11.5222 11.4865 12.0698 11.3549 12.232C11.2233 12.3946 11.0917 12.4149 10.8662 12.2932C10.6405 12.1712 9.91404 11.9146 9.05225 11.0862C8.38168 10.4415 7.92902 9.64545 7.79738 9.40194C7.66583 9.15875 7.78333 9.02702 7.89643 8.90576C7.99777 8.79678 8.12207 8.62179 8.23489 8.47985C8.34743 8.33782 8.38497 8.23646 8.46016 8.07423C8.53543 7.91191 8.49779 7.76987 8.44143 7.64822C8.38497 7.52657 7.94677 6.32395 7.7462 5.84302Z" fill="white"/>
</svg>
